<?xml version="1.0" encoding="UTF-8" standalone="no"?>
<!-- Created with Inkscape (http://www.inkscape.org/) -->

<svg
   version="1.1"
   id="svg182"
   width="200"
   height="200"
   viewBox="0 0 200 200"
   sodipodi:docname="Propuesta Ruleta y Cabina de Fotos_v3.ai"
   xmlns:inkscape="http://www.inkscape.org/namespaces/inkscape"
   xmlns:sodipodi="http://sodipodi.sourceforge.net/DTD/sodipodi-0.dtd"
   xmlns="http://www.w3.org/2000/svg"
   xmlns:svg="http://www.w3.org/2000/svg">
  <defs
     id="defs186">
    <clipPath
       clipPathUnits="userSpaceOnUse"
       id="clipPath16494-6">
      <path
         d="M 0,1920 H 1080 V 0 H 0 Z"
         id="path16492-2" />
    </clipPath>
    <clipPath
       clipPathUnits="userSpaceOnUse"
       id="clipPath16502-7">
      <path
         d="m 401.859,668.911 h 56.612 v -79.735 h -56.612 z"
         id="path16500-0" />
    </clipPath>
  </defs>
  <sodipodi:namedview
     id="namedview184"
     pagecolor="#ffffff"
     bordercolor="#000000"
     borderopacity="0.25"
     inkscape:showpageshadow="2"
     inkscape:pageopacity="0.0"
     inkscape:pagecheckerboard="0"
     inkscape:deskcolor="#d1d1d1"
     showgrid="false" />
  <g
     id="g12242"
     inkscape:groupmode="layer"
     inkscape:label="Page 2"
     transform="matrix(1.3333333,0,0,-1.3333333,-1603.571,-185.64941)">
    <g
       id="g76206"
       inkscape:export-filename="../../Apps Flutter/4k/ruleta4k/ruleta4k/assets/cubiertos.svg"
       inkscape:export-xdpi="96"
       inkscape:export-ydpi="96">
      <rect
         style="opacity:0;fill:#0071e2;fill-rule:evenodd;stroke-width:0;stroke-linecap:round;stroke-linejoin:round;paint-order:stroke fill markers"
         id="rect73115-8"
         width="150"
         height="150"
         x="1202.6783"
         y="139.23712"
         transform="scale(1,-1)" />
      <g
         id="g16488"
         transform="matrix(-1.7817605,-0.53070979,0.53070979,-1.7817605,1716.2787,1144.5513)">
        <g
           id="g16490"
           clip-path="url(#clipPath16494-6)">
          <g
             id="g16496">
            <g
               id="g16498" />
            <g
               id="g16518">
              <g
                 clip-path="url(#clipPath16502-7)"
                 opacity="0.830002"
                 id="g16516">
                <g
                   transform="translate(454.2596,660.9802)"
                   id="g16506">
                  <path
                     d="m 0,0 c 0.706,-0.492 1.501,-0.894 2.1,-1.493 1.953,-1.956 2.577,-4.34 1.765,-6.983 -1.839,-5.989 -3.75,-11.955 -5.635,-17.93 -1.447,-4.587 -2.896,-9.174 -4.359,-13.757 -0.126,-0.394 -0.06,-0.626 0.251,-0.903 4.049,-3.604 5.174,-8.901 3.105,-13.969 -1.879,-4.603 -3.648,-9.25 -5.465,-13.878 -0.189,-0.48 -0.371,-0.963 -0.564,-1.442 -0.388,-0.961 -1.16,-1.36 -2.139,-1.449 -0.406,0.114 -0.812,0.228 -1.218,0.342 -0.993,0.855 -1.066,1.885 -0.748,3.103 0.733,2.812 1.377,5.648 2.054,8.475 0.491,2.051 0.985,4.102 1.464,6.157 0.392,1.686 -0.984,3.106 -2.563,2.645 -0.868,-0.254 -1.327,-0.883 -1.565,-1.737 -1.332,-4.788 -2.7,-9.567 -4.007,-14.362 -0.344,-1.264 -1.03,-2.007 -2.348,-2.119 -0.315,0.089 -0.631,0.178 -0.947,0.266 -1.028,0.859 -1.129,1.877 -0.76,3.14 1.38,4.724 2.679,9.471 4.006,14.21 0.305,1.09 0.066,1.963 -0.677,2.535 -1.2,0.922 -2.839,0.328 -3.332,-1.227 -1.508,-4.757 -3.035,-9.51 -4.491,-14.283 -0.396,-1.298 -1.109,-2.065 -2.459,-2.212 -0.405,0.114 -0.811,0.228 -1.217,0.341 -0.906,0.745 -1.114,1.665 -0.902,2.817 0.801,4.357 1.537,8.727 2.299,13.091 0.19,1.086 0.388,2.17 0.581,3.255 0.882,4.954 4.698,8.811 9.625,9.678 0.53,0.093 0.725,0.304 0.849,0.807 2.582,10.525 5.167,21.049 7.788,31.563 1.004,4.031 3.491,5.864 7.624,5.759 0.042,-0.001 0.084,0.035 0.126,0.053 z"
                     style="fill:#ffffff;fill-opacity:1;fill-rule:nonzero;stroke:none"
                     id="path16504" />
                </g>
                <g
                   transform="translate(402.8609,600.5219)"
                   id="g16510">
                  <path
                     d="m 0,0 c -1.046,0.811 -1.179,1.807 -0.826,3.058 4.161,14.741 8.288,29.492 12.424,44.24 0.074,0.264 0.148,0.528 0.24,0.857 0.299,-0.084 0.519,-0.146 0.739,-0.207 4.373,-1.227 8.746,-2.452 13.119,-3.68 1.582,-0.444 2.157,-1.447 1.713,-3.032 C 24.519,30.914 21.65,20.585 18.718,10.274 16.678,3.102 10.343,-1.219 2.929,-0.601 c -0.345,0.029 -0.69,0.047 -1.035,0.07 z"
                     style="fill:#ffffff;fill-opacity:1;fill-rule:nonzero;stroke:none"
                     id="path16508" />
                </g>
                <g
                   transform="translate(427.739,668.4175)"
                   id="g16514">
                  <path
                     d="m 0,0 c 0.618,-0.45 1.307,-0.829 1.84,-1.364 1.683,-1.688 2.293,-3.751 1.68,-6.063 -1.009,-3.807 -2.108,-7.59 -3.172,-11.383 -0.018,-0.064 -0.065,-0.12 -0.12,-0.218 -4.018,1.127 -8.035,2.253 -12.065,3.383 0.014,0.124 0.012,0.217 0.037,0.304 1.073,3.814 2.089,7.645 3.242,11.436 0.871,2.863 3.488,4.544 6.464,4.359 0.11,-0.006 0.223,0.025 0.335,0.039 z"
                     style="fill:#ffffff;fill-opacity:1;fill-rule:nonzero;stroke:none"
                     id="path16512" />
                </g>
              </g>
            </g>
          </g>
        </g>
      </g>
    </g>
  </g>
</svg>
