<?xml version="1.0" encoding="UTF-8" standalone="no"?>
<!-- Created with Inkscape (http://www.inkscape.org/) -->

<svg
   version="1.1"
   id="svg182"
   width="200"
   height="200"
   viewBox="0 0 200 200"
   sodipodi:docname="Propuesta Ruleta y Cabina de Fotos_v3.ai"
   xmlns:inkscape="http://www.inkscape.org/namespaces/inkscape"
   xmlns:sodipodi="http://sodipodi.sourceforge.net/DTD/sodipodi-0.dtd"
   xmlns="http://www.w3.org/2000/svg"
   xmlns:svg="http://www.w3.org/2000/svg">
  <defs
     id="defs186">
    <clipPath
       clipPathUnits="userSpaceOnUse"
       id="clipPath16618-7-3-6">
      <path
         d="m 795.31,776.32 h 68.56 v -86.928 h -68.56 z"
         id="path16616-0-9-0" />
    </clipPath>
  </defs>
  <sodipodi:namedview
     id="namedview184"
     pagecolor="#ffffff"
     bordercolor="#000000"
     borderopacity="0.25"
     inkscape:showpageshadow="2"
     inkscape:pageopacity="0.0"
     inkscape:pagecheckerboard="0"
     inkscape:deskcolor="#d1d1d1"
     showgrid="false" />
  <g
     id="g12242"
     inkscape:groupmode="layer"
     inkscape:label="Page 2"
     transform="matrix(1.3333333,0,0,-1.3333333,-1074.7864,-463.48584)">
    <g
       id="g76230"
       inkscape:export-filename="../../Apps Flutter/4k/ruleta4k/ruleta4k/assets/galletas.png"
       inkscape:export-xdpi="96"
       inkscape:export-ydpi="96">
      <rect
         style="opacity:0;fill:#0071e2;fill-rule:evenodd;stroke-width:0;stroke-linecap:round;stroke-linejoin:round;paint-order:stroke fill markers"
         id="rect73115"
         width="150"
         height="150"
         x="806.08978"
         y="347.61432"
         transform="scale(1,-1)" />
      <g
         id="g16612"
         transform="matrix(1.5530174,0,0,1.5530174,-407.27803,-1553.2521)">
        <g
           id="g16614" />
        <g
           id="g16630">
          <g
             clip-path="url(#clipPath16618-7-3-6)"
             opacity="0.830002"
             id="g16628">
            <g
               transform="translate(811.1419,735.4203)"
               id="g16622">
              <path
                 d="M 0,0 C 0.976,-0.892 2.507,-0.828 3.392,0.143 4.28,1.117 4.205,2.635 3.224,3.532 2.246,4.426 0.723,4.362 -0.164,3.389 -1.054,2.413 -0.98,0.896 0,0 m 11.033,-10.25 c 0.96,-0.916 2.481,-0.885 3.393,0.069 0.908,0.949 0.867,2.479 -0.091,3.391 -0.963,0.916 -2.481,0.886 -3.393,-0.067 -0.907,-0.947 -0.866,-2.482 0.091,-3.393 M 23.73,22.034 c 0.893,0.959 0.835,2.504 -0.127,3.4 -0.963,0.896 -2.504,0.841 -3.399,-0.121 -0.898,-0.965 -0.84,-2.49 0.13,-3.392 0.97,-0.902 2.499,-0.851 3.396,0.113 m 7.525,-7.026 c -0.885,-0.976 -0.808,-2.503 0.172,-3.393 0.981,-0.891 2.508,-0.822 3.392,0.154 0.884,0.975 0.809,2.516 -0.165,3.398 -0.976,0.884 -2.519,0.812 -3.399,-0.159 M 19.067,5.913 c 0.897,0.973 0.83,2.485 -0.15,3.39 -0.979,0.905 -2.49,0.85 -3.39,-0.123 -0.881,-0.954 -0.821,-2.533 0.13,-3.409 0.953,-0.878 2.53,-0.812 3.41,0.142 m 10.958,-6.926 c -0.979,0.923 -2.478,0.897 -3.397,-0.058 -0.898,-0.932 -0.866,-2.512 0.068,-3.414 0.93,-0.898 2.498,-0.86 3.41,0.082 0.917,0.948 0.88,2.485 -0.081,3.39 M 7.859,19.577 c -0.977,0.914 -2.477,0.87 -3.39,-0.1 -0.893,-0.95 -0.846,-2.516 0.103,-3.408 0.944,-0.887 2.522,-0.833 3.409,0.117 0.907,0.971 0.853,2.478 -0.122,3.391 M -7.88,29.565 c 0.438,0.471 0.876,0.942 1.313,1.413 1.499,0.616 2.97,1.318 4.506,1.821 1.311,0.429 2.29,1.147 3.121,2.237 0.789,1.034 1.664,2.05 2.675,2.857 1.787,1.427 3.931,1.49 6.051,0.988 1.994,-0.471 3.804,-0.239 5.531,0.847 0.404,0.254 0.861,0.43 1.306,0.61 2.152,0.867 4.237,0.742 6.235,-0.462 0.504,-0.303 1.019,-0.601 1.472,-0.971 1.366,-1.114 2.87,-1.725 4.668,-1.507 0.554,0.067 1.124,0.024 1.685,0 2.274,-0.099 4.15,-0.983 5.468,-2.881 0.501,-0.723 0.973,-1.477 1.363,-2.264 0.638,-1.287 1.583,-2.189 2.917,-2.722 0.669,-0.266 1.356,-0.546 1.937,-0.957 0.841,-0.595 1.693,-1.229 2.363,-2 1.222,-1.408 1.478,-3.198 1.462,-4.981 -0.017,-1.914 0.648,-3.454 1.947,-4.836 2.438,-2.593 2.941,-5.548 1.426,-8.809 C 49.363,7.513 49.217,7.051 49.02,6.612 48.585,5.643 48.531,4.658 48.802,3.634 49.021,2.806 49.218,1.971 49.377,1.13 c 0.437,-2.306 -0.1,-4.361 -1.7,-6.096 -0.561,-0.609 -1.157,-1.199 -1.804,-1.713 -1.079,-0.86 -1.742,-1.92 -1.963,-3.29 -0.132,-0.816 -0.337,-1.625 -0.567,-2.42 -0.637,-2.203 -2.038,-3.728 -4.181,-4.546 -0.699,-0.267 -1.41,-0.523 -2.138,-0.686 -1.545,-0.344 -2.706,-1.156 -3.59,-2.482 -2.025,-3.041 -4.773,-4.6 -8.496,-3.711 -2.074,0.495 -3.92,0.21 -5.762,-0.863 -2.978,-1.734 -5.913,-1.499 -8.596,0.664 -1.657,1.335 -3.451,1.99 -5.571,1.686 -0.105,-0.015 -0.214,-0.004 -0.321,-0.007 -3.137,-0.081 -5.559,1.208 -6.938,4.021 -1.064,2.17 -2.597,3.583 -4.84,4.482 -2.877,1.155 -4.324,3.462 -4.485,6.562 -0.029,0.562 -0.083,1.123 -0.09,1.685 -0.016,1.206 -0.439,2.242 -1.231,3.141 -0.319,0.362 -0.615,0.742 -0.929,1.107 -2.034,2.364 -2.577,4.986 -1.375,7.912 0.203,0.494 0.369,1.006 0.604,1.485 0.61,1.239 0.692,2.496 0.293,3.819 -0.231,0.767 -0.393,1.559 -0.521,2.35 -0.322,2.004 0.07,3.853 1.413,5.41 0.697,0.807 1.476,1.552 2.28,2.254 0.878,0.767 1.446,1.663 1.748,2.802 0.435,1.641 0.996,3.248 1.503,4.869"
                 style="fill:#ffffff;fill-opacity:1;fill-rule:nonzero;stroke:none"
                 id="path16620" />
            </g>
            <g
               transform="translate(863.6025,728.4243)"
               id="g16626">
              <path
                 d="m 0,0 c 0.389,-1.164 0.327,-2.356 -0.012,-3.522 -0.268,-0.921 -0.604,-1.831 -1.001,-2.704 -0.559,-1.229 -0.666,-2.451 -0.277,-3.746 0.222,-0.742 0.383,-1.506 0.514,-2.27 0.422,-2.451 -0.287,-4.547 -2.047,-6.293 -0.419,-0.414 -0.815,-0.866 -1.289,-1.207 -1.349,-0.972 -2.037,-2.292 -2.256,-3.912 -0.075,-0.554 -0.236,-1.097 -0.375,-1.641 -0.637,-2.508 -2.2,-4.168 -4.636,-5.008 -0.708,-0.244 -1.423,-0.477 -2.15,-0.654 -1.316,-0.319 -2.294,-1.058 -3.07,-2.162 -0.551,-0.785 -1.187,-1.522 -1.861,-2.206 -1.531,-1.555 -3.436,-2.108 -5.576,-1.886 -0.851,0.088 -1.701,0.215 -2.54,0.383 -1.157,0.231 -2.23,0.061 -3.255,-0.508 -0.374,-0.207 -0.772,-0.371 -1.145,-0.579 -3.053,-1.698 -5.991,-1.459 -8.684,0.704 -1.623,1.304 -3.349,1.849 -5.417,1.686 -2.268,-0.178 -4.406,0.309 -5.997,2.09 -0.687,0.769 -1.298,1.651 -1.748,2.577 -0.805,1.656 -1.982,2.802 -3.714,3.44 -0.72,0.265 -1.391,0.682 -2.051,1.085 -1.487,0.908 -2.421,2.246 -2.852,3.923 -0.152,0.593 -0.316,1.218 -0.282,1.818 0.145,2.549 -0.813,4.594 -2.546,6.418 -1.108,1.167 -1.707,2.651 -1.735,4.302 -0.009,0.499 0.056,0.999 0.088,1.503 1.138,-0.807 2.12,-1.783 3.304,-2.28 1.991,-0.836 3.245,-2.186 4.348,-4.022 2.26,-3.766 5.822,-5.498 10.182,-5.443 1.44,0.018 2.614,-0.24 3.824,-1.115 4.491,-3.249 9.159,-3.057 13.877,-0.415 0.348,0.195 0.862,0.264 1.256,0.182 3.537,-0.741 6.92,-0.549 10.04,1.492 1.527,0.999 2.708,2.345 3.761,3.804 0.366,0.505 0.746,0.818 1.374,0.967 3.792,0.9 6.923,2.786 8.634,6.423 0.673,1.432 0.953,3.047 1.422,4.576 0.083,0.27 0.147,0.592 0.332,0.776 1.155,1.146 2.342,2.26 3.56,3.424"
                 style="fill:#ffffff;fill-opacity:1;fill-rule:nonzero;stroke:none"
                 id="path16624" />
            </g>
          </g>
        </g>
      </g>
    </g>
  </g>
</svg>
