<?xml version="1.0" encoding="UTF-8" standalone="no"?>
<!-- Created with Inkscape (http://www.inkscape.org/) -->

<svg
   version="1.1"
   id="svg182"
   width="200"
   height="200"
   viewBox="0 0 200 200"
   sodipodi:docname="Propuesta Ruleta y Cabina de Fotos_v3.ai"
   xmlns:inkscape="http://www.inkscape.org/namespaces/inkscape"
   xmlns:sodipodi="http://sodipodi.sourceforge.net/DTD/sodipodi-0.dtd"
   xmlns="http://www.w3.org/2000/svg"
   xmlns:svg="http://www.w3.org/2000/svg">
  <defs
     id="defs186">
    <clipPath
       clipPathUnits="userSpaceOnUse"
       id="clipPath16530-3-3">
      <path
         d="M 0,1920 H 1080 V 0 H 0 Z"
         id="path16528-9-0" />
    </clipPath>
    <clipPath
       clipPathUnits="userSpaceOnUse"
       id="clipPath16538-9-6">
      <path
         d="m 609.378,1447.01 h 74.524 v -77.92 h -74.524 z"
         id="path16536-9-2" />
    </clipPath>
  </defs>
  <sodipodi:namedview
     id="namedview184"
     pagecolor="#ffffff"
     bordercolor="#000000"
     borderopacity="0.25"
     inkscape:showpageshadow="2"
     inkscape:pageopacity="0.0"
     inkscape:pagecheckerboard="0"
     inkscape:deskcolor="#d1d1d1"
     showgrid="false" />
  <g
     id="g12242"
     inkscape:groupmode="layer"
     inkscape:label="Page 2"
     transform="matrix(1.3333333,0,0,-1.3333333,-1360,-188.73633)">
    <g
       id="g76191"
       inkscape:export-filename="../../Apps Flutter/4k/ruleta4k/ruleta4k/assets/pachera.svg"
       inkscape:export-xdpi="96"
       inkscape:export-ydpi="96">
      <rect
         style="opacity:0;fill:#0071e2;fill-rule:evenodd;stroke-width:0;stroke-linecap:round;stroke-linejoin:round;paint-order:stroke fill markers"
         id="rect73115-4"
         width="150"
         height="150"
         x="1020"
         y="141.55231"
         transform="scale(1,-1)" />
      <g
         id="g16524"
         transform="matrix(1.7113607,0.51413188,-0.51413188,1.7113607,700.35054,-2959.1611)">
        <g
           id="g16526"
           clip-path="url(#clipPath16530-3-3)">
          <g
             id="g16532">
            <g
               id="g16534" />
            <g
               id="g16562">
              <g
                 clip-path="url(#clipPath16538-9-6)"
                 opacity="0.830002"
                 id="g16560">
                <g
                   transform="translate(644.537,1377.9749)"
                   id="g16542">
                  <path
                     d="m 0,0 c 4.116,-1.265 8.255,-2.46 12.339,-3.818 3.013,-1.003 5.948,0.492 6.555,3.767 0.736,3.97 1.614,7.913 2.37,11.88 0.488,2.563 -0.528,4.13 -3.044,4.904 -5.554,1.708 -11.109,3.415 -16.664,5.122 -2.55,0.784 -5.097,1.582 -7.652,2.347 -1.972,0.59 -3.938,-0.259 -4.699,-2.046 -1.644,-3.862 -3.292,-7.722 -4.875,-11.608 -1.291,-3.165 -0.023,-5.722 3.247,-6.729 C -8.282,2.544 -4.141,1.273 0,0 m -1.104,-3.642 c -5.356,1.646 -10.714,3.283 -16.066,4.942 -2.672,0.829 -4.161,2.934 -3.9,5.509 0.055,0.543 0.216,1.094 0.426,1.6 1.933,4.659 3.887,9.309 5.835,13.961 1.989,4.75 3.979,9.5 5.967,14.25 1.897,4.53 3.764,9.074 5.699,13.588 1.017,2.372 3.645,3.478 6.241,2.695 3.77,-1.137 7.53,-2.308 11.294,-3.465 4.118,-1.266 8.236,-2.529 12.353,-3.798 3.187,-0.982 4.539,-3.211 3.887,-6.484 -1.55,-7.769 -3.12,-15.534 -4.683,-23.3 -1.37,-6.809 -2.727,-13.62 -4.116,-20.425 -0.684,-3.354 -3.49,-5.017 -6.793,-4.028 -3.696,1.107 -7.378,2.261 -11.066,3.394 -1.693,0.52 -3.386,1.041 -5.078,1.561"
                     style="fill:#ffffff;fill-opacity:1;fill-rule:nonzero;stroke:none"
                     id="path16540" />
                </g>
                <g
                   transform="translate(649.8502,1432.8962)"
                   id="g16546">
                  <path
                     d="m 0,0 c -0.828,0.254 -1.575,0.484 -2.322,0.714 1.427,8.028 6.439,13.902 15.08,13.365 8.393,-0.521 14.057,-8.433 12.147,-16.612 -0.348,-1.489 -0.856,-2.94 -1.296,-4.407 -0.029,-0.095 -0.105,-0.176 -0.159,-0.263 -0.77,0.237 -1.518,0.466 -2.346,0.721 0.384,1.252 0.767,2.454 1.123,3.664 C 23.668,2.077 21.959,7.015 17.888,9.74 11.723,13.866 3.534,10.968 1.178,3.818 0.766,2.571 0.402,1.307 0,0"
                     style="fill:#ffffff;fill-opacity:1;fill-rule:nonzero;stroke:none"
                     id="path16544" />
                </g>
                <g
                   transform="translate(673.9217,1398.0255)"
                   id="g16550">
                  <path
                     d="m 0,0 c 0.136,0.658 0.3,1.22 0.357,1.792 0.07,0.702 0.453,0.815 1.067,0.805 6.372,-0.108 9.977,-5.229 8.026,-11.495 -0.477,-1.534 -1.099,-3.027 -1.723,-4.51 -1.554,-3.697 -1.246,-7.047 1.716,-9.961 0.587,-0.576 0.623,-1.325 0.151,-1.842 -0.51,-0.559 -1.334,-0.567 -1.977,0.057 -2.978,2.892 -4.058,6.387 -2.997,10.4 0.496,1.879 1.358,3.658 2.001,5.501 0.311,0.892 0.618,1.815 0.72,2.747 C 7.767,-2.622 5.339,0.034 1.438,0.04 0.992,0.04 0.546,0.016 0,0"
                     style="fill:#ffffff;fill-opacity:1;fill-rule:nonzero;stroke:none"
                     id="path16548" />
                </g>
                <g
                   transform="translate(631.4754,1411.1804)"
                   id="g16554">
                  <path
                     d="m 0,0 c -0.755,0.462 -1.418,0.948 -2.146,1.3 -2.937,1.421 -6.05,0.5 -7.435,-2.473 -0.857,-1.838 -1.258,-3.902 -1.757,-5.891 -0.537,-2.144 -1.131,-4.24 -2.616,-5.957 -1.746,-2.021 -3.935,-3.244 -6.585,-3.613 -0.848,-0.118 -1.408,0.27 -1.536,0.999 -0.127,0.727 0.279,1.337 1.093,1.475 4.361,0.736 6.342,3.615 7.191,7.685 0.451,2.158 0.943,4.38 1.888,6.346 2.027,4.215 7.14,6.511 12.482,2.713 C 0.735,2.473 0.821,2.08 0.757,1.877 0.558,1.251 0.271,0.653 0,0"
                     style="fill:#ffffff;fill-opacity:1;fill-rule:nonzero;stroke:none"
                     id="path16552" />
                </g>
                <g
                   transform="translate(645.2331,1380.4463)"
                   id="g16558">
                  <path
                     d="m 0,0 c -4.116,1.265 -8.233,2.528 -12.349,3.797 -1.876,0.578 -2.392,1.564 -1.656,3.35 1.55,3.758 3.138,7.501 4.726,11.243 0.4,0.941 0.917,1.17 1.894,0.87 8.133,-2.494 16.265,-4.993 24.395,-7.498 0.974,-0.3 1.273,-0.781 1.074,-1.786 C 17.29,5.962 16.497,1.948 15.659,-2.057 15.285,-3.848 14.278,-4.384 12.501,-3.841 8.333,-2.565 4.167,-1.281 0,0"
                     style="fill:#ffffff;fill-opacity:1;fill-rule:nonzero;stroke:none"
                     id="path16556" />
                </g>
              </g>
            </g>
          </g>
        </g>
      </g>
    </g>
  </g>
</svg>
